PathFileType	4	(X/Y/Z)	RBDS020\RBDS020runT25.trc
DataRate	CameraRate	NumFrames	NumMarkers	Units	OrigDataRate	OrigDataStartFrame	OrigNumFrames
150.000000	150.000000	5	33	mm	150.000000	1125	4500
Frame#	Time	L.ASIS			L.Heel.Bottom			L.Heel.Lateral			L.Heel.Top			L.Iliac.Crest			L.MT1			L.MT5			L.PSIS			L.Shank.Bottom.Lateral			L.Shank.Bottom.Medial			L.Shank.Top.Lateral			L.Shank.Top.Medial			L.Thigh.Bottom.Lateral			L.Thigh.Bottom.Medial			L.Thigh.Top.Lateral			L.Thigh.Top.Medial			R.ASIS			R.ASY			R.Heel.Bottom			R.Heel.Lateral			R.Heel.Top			R.Iliac.Crest			R.MT1			R.MT5			R.PSIS			R.Shank.Bottom.Lateral			R.Shank.Bottom.Medial			R.Shank.Top.Lateral			R.Shank.Top.Medial			R.Thigh.Bottom.Lateral			R.Thigh.Bottom.Medial			R.Thigh.Top.Lateral			R.Thigh.Top.Medial			
		X1	Y1	Z1	X2	Y2	Z2	X3	Y3	Z3	X4	Y4	Z4	X5	Y5	Z5	X6	Y6	Z6	X7	Y7	Z7	X8	Y8	Z8	X9	Y9	Z9	X10	Y10	Z10	X11	Y11	Z11	X12	Y12	Z12	X13	Y13	Z13	X14	Y14	Z14	X15	Y15	Z15	X16	Y16	Z16	X17	Y17	Z17	X18	Y18	Z18	X19	Y19	Z19	X20	Y20	Z20	X21	Y21	Z21	X22	Y22	Z22	X23	Y23	Z23	X24	Y24	Z24	X25	Y25	Z25	X26	Y26	Z26	X27	Y27	Z27	X28	Y28	Z28	X29	Y29	Z29	X30	Y30	Z30	X31	Y31	Z31	X32	Y32	Z32	X33	Y33	Z33	

1126	7.500000000000001	2252.317702884002	997.4163262728971	882.5664118420761	1767.07044849731	337.0013765394157	942.712222830312	1778.521420434303	314.645667961275	895.0515947713924	1813.568706769694	328.9488015937374	932.3543210507401	2196.135658309019	1040.077975668721	850.1881677996525	1795.286255107458	117.2354802419677	960.3042739425674	1758.673521906848	155.3046262098082	863.5117579877801	2090.698917535488	1023.44906624968	949.2665667717752	1886.370573801654	305.7699607716599	862.1986549769365	1871.436100546474	337.9463348648858	905.5342986579301	1949.330531532431	354.270557455711	849.2177486644576	1936.243686520942	385.2586369823725	891.4620233456294	2195.578729138124	641.3105813792489	820.8513038140443	2131.321388400653	634.5859859203945	854.7008896844103	2180.155847247296	749.5782084139037	814.4560930194041	2120.119765077147	743.372629186132	849.9547230819015	2247.982581125911	1000.486570360449	1117.54647372832	2322.700465409519	80.45957157223964	1054.641583141798	2134.129352234288	28.63694178120949	1038.971917842673	2158.243789699907	45.74761697119031	1084.047695498812	2142.759258717052	70.92618633638921	1038.614552491565	2190.615407886517	1039.213758453703	1151.241030494114	2348.25938167267	45.85017584827678	1011.407612831718	2321.267231011069	38.18332618746756	1119.649827918898	2088.434175249473	1024.536876546859	1046.51698529782	2237.123089867471	176.0892033971338	1105.386296910143	2195.328649555632	193.4912261734007	1080.165859460189	2256.000779486198	256.7357843467905	1124.949556928706	2210.668105876511	270.5869397833796	1100.00534899383	2255.373219196184	618.8653598616354	1149.712697690378	2202.991977651852	599.6352896296584	1104.99842399598	2207.106125692076	718.403326416748	1160.699320121312	2158.759806839837	699.817658717686	1116.667385791089	
1127	7.506666666666667	2249.96865581081	994.1737199983575	882.5363658982415	1775.675126764845	338.044502943864	941.4340407776205	1787.810261397743	315.7458958861707	894.0717698510148	1822.318596973962	330.5315070194153	931.5581469185585	2192.675265860606	1035.139494909051	850.2178868270009	1806.722755900237	118.9522315066332	960.0776516880918	1770.456018175929	156.2500329062038	862.8686070620337	2087.913800812641	1018.651487465037	949.9249474053062	1897.099559414158	306.9053567616061	861.8549314211738	1882.353801665993	339.4534252597199	904.9679137360579	1960.740934195321	354.5760298104018	849.0075800227524	1947.803318870225	385.9033912339205	890.997674408953	2202.232408352237	638.4842028321624	821.1743735043348	2138.146617237228	629.7959186088584	854.9058382969295	2183.854480356128	746.3076252999268	815.3793098365539	2123.980383191407	738.2688307898692	850.7416807909347	2246.573450777564	997.7070357353143	1118.171082526617	2306.206896918732	80.42045828803487	1054.645731601586	2117.540862122582	28.96199386951957	1039.159346389466	2141.709466730549	46.01200277702538	1084.264554534822	2126.191179537035	71.24623048832066	1038.906428971001	2188.618872007414	1034.838271536153	1151.837068026776	2331.614631305426	46.18352276596821	1011.556112458567	2304.708228526668	38.45527551325913	1119.709901606234	2086.078507333213	1020.341658989425	1046.761114075037	2224.271589510104	175.5992238780014	1105.650378927176	2182.781565809353	194.4356679765805	1080.837693837034	2245.922999301244	255.5707523113905	1125.286195432998	2200.894621727095	270.9329703321325	1100.748731180546	2252.610779330103	616.2708049151503	1150.821047207117	2200.26527591262	597.390047607376	1105.867988777452	2204.77738466194	716.0603168641514	1161.798736676764	2156.464679289855	697.7317570565486	1117.622173966175	
1128	7.513333333333334	2247.590771925208	991.3714308497543	882.5270721914216	1784.18352855987	338.1591535354963	940.0354944799371	1797.360362691074	316.071113732383	893.0129681874889	1831.036272263195	331.56289295232	930.8300366591901	2189.039840526035	1030.771769761436	850.2236948413057	1819.797203520696	120.0789531896781	959.7810531604716	1783.964585615742	156.3879951625865	862.0565157374685	2085.196252418074	1014.612599900938	950.5085646298833	1908.392039415324	307.8779050978818	861.593222303269	1893.686821158649	340.7740324202016	904.4397398129026	1972.549143235681	354.9248316511681	848.9033606818288	1959.602652640285	386.581402693412	890.5951679321025	2208.774500375371	636.3470380236107	821.5893035153281	2144.918037022397	625.711228930891	855.2085358592501	2187.438591221714	743.6354636593856	816.3272831526155	2127.766553639821	733.7799025638857	851.5379578478448	2245.232591200325	995.3169898039185	1118.634906300885	2289.772036316897	80.44288963300669	1054.907868522159	2101.047516824935	29.26180380811694	1039.426542340195	2125.245168906798	46.19494628002081	1084.593759026887	2109.687670870201	71.54620713273759	1039.331375870314	2186.616379321014	1031.03611597191	1152.321172518708	2315.042353005611	46.58160473390908	1011.876128215736	2288.201289163202	38.6556255003395	1119.907596018522	2083.858718829515	1016.895595292636	1046.983627206975	2211.055485282343	175.1428580910438	1106.192007712729	2169.945474243216	195.267885143225	1081.688809287361	2235.236909448939	254.4079121744308	1125.848842098966	2190.575622117226	271.1113706617726	1101.610554223688	2248.980056326675	613.8597653797175	1152.04185575163	2196.619975685497	595.4363470700259	1106.879046904929	2201.87399344706	714.0375406035391	1162.937952937649	2153.550384203174	696.0676024123608	1118.622380747611	
1129	7.52	2245.261774053884	989.0826240548943	882.5796904310924	1792.640149745786	337.2961139535709	938.6011346327854	1807.166309653465	315.5954268315391	891.93280081867	1839.734004523459	331.972980711826	930.2061339607671	2185.359276817677	1027.118999949667	850.2231424471332	1834.355178269258	120.5945007856059	959.4145525967123	1799.031311120087	155.7716165281426	861.1111734944129	2082.64162610587	1011.43842133362	951.0294004243648	1920.158429510665	308.6382362322454	861.4274341077861	1905.347436132873	341.8534526038354	903.9690276023393	1984.659518088906	355.2858322536516	848.9066738363442	1971.553420610641	387.2542543750016	890.2684419677154	2215.160675201254	634.9208074698826	822.0874146170254	2151.593628382539	622.3691144951873	855.611152903095	2190.881922196123	741.5892319358164	817.2726123215199	2131.450223822057	729.9443449202015	852.3214438360823	2243.98600771997	993.3266372610185	1118.957696461721	2273.355185245711	80.46210067578198	1055.366679711145	2084.593185667693	29.51635319484985	1039.746325235544	2108.801308994015	46.29140147131849	1084.998756510528	2093.210169719798	71.8060726124837	1039.839765611097	2184.710130326738	1027.90973397092	1152.70244153179	2298.51538606727	46.94962231985599	1012.318550837902	2271.703238448086	38.75465208517434	1120.216859204011	2081.84829820919	1014.280333122987	1047.217196992037	2197.419326301951	174.6890870021768	1106.939458041743	2156.75826204014	195.9502158007283	1082.630596191412	2223.878074880723	253.2359816295952	1126.580194114634	2179.636284070166	271.1135240799696	1102.512760120941	2244.499338213969	611.6614526246389	1153.347741807034	2192.042772023888	593.7906781242817	1108.049003386013	2198.418240600918	712.3571014903456	1164.100882058666	2150.010650402386	694.8407941122302	1119.68699571086	
1130	7.526666666666667	2243.051058227193	987.3689223913221	882.7302316025615	1801.109513889803	335.3999734800892	937.2187912809053	1817.229555451266	314.2910629806466	890.8943317033225	1848.435400038956	331.6849239224386	929.7193705187392	2181.776956188494	1024.296911242031	850.2354308196252	1850.2449839197	120.4991538571609	958.9795945979915	1815.478873706786	154.4769217042216	860.0724152066146	2080.325244539807	1009.192395608602	951.5070835378559	1932.307614041967	309.1359653217345	861.3727332868766	1917.24770412139	342.6353526380036	903.5767552102126	1996.974928625784	355.6231681996043	849.0195138750025	1983.567255945501	387.8772576652868	890.0310388130642	2221.35369520084	634.2150504870241	822.6565479618945	2158.134098772399	619.7935290403234	856.1060982907051	2194.166296142928	740.1858332912204	818.1887370968793	2135.01011939861	726.7898795908693	853.0682697901561	2242.848512526226	991.7327277132523	1119.169133507985	2256.90926538125	80.44328828565233	1055.958604027734	2068.121001239892	29.72101338885269	1040.095423063889	2092.328219826599	46.30949849505917	1085.447433934231	2076.714909986964	72.02040913747389	1040.392315034696	2183.003515652835	1025.529250517706	1152.997432887213	2281.997710267404	47.23176122254575	1012.830979053603	2255.171862490057	38.74589663281763	1120.603695960839	2080.099364364371	1012.532966010225	1047.493956715492	2183.32606988217	174.2374751453289	1107.817090229044	2143.170754182711	196.481528083829	1083.581648036856	2211.812420161416	252.0732724892937	1127.417858852876	2168.027234629916	270.9687465733061	1103.387162802114	2239.21374715659	609.7110184581306	1154.70579138594	2186.561216095767	592.4762071426127	1109.373701521833	2194.44627369896	711.0371833845875	1165.268728117043	2145.863043786052	694.0639534171765	1120.822128259543	
